<svg width="126" height="146" viewBox="0 0 126 146" fill="none" xmlns="http://www.w3.org/2000/svg">
<g clip-path="url(#clip0_1129_18098)">
<path d="M125.64 145.76H0.360352V39.77L62.9904 0L125.64 39.77V145.76Z" fill="#3A7BBF"/>
<path opacity="0.2" d="M125.64 145.76H0.360352V39.77L62.9904 0L125.64 39.77V145.76Z" fill="black"/>
<path d="M118.581 27.2402H7.43066V141.63H118.581V27.2402Z" fill="#EBEBEB"/>
<path d="M18.2703 46.0303L108.82 46.0303V42.3703L18.2703 42.3703V46.0303Z" fill="#DBDBDB"/>
<path d="M18.2703 55.2705L108.82 55.2705V51.6105L18.2703 51.6105V55.2705Z" fill="#DBDBDB"/>
<path d="M18.2703 64.5205L108.82 64.5205V60.8605L18.2703 60.8605V64.5205Z" fill="#DBDBDB"/>
<path d="M18.2703 73.7705L108.82 73.7705V70.1105L18.2703 70.1105V73.7705Z" fill="#DBDBDB"/>
<path d="M18.2703 83.0205L108.82 83.0205V79.3605L18.2703 79.3605V83.0205Z" fill="#DBDBDB"/>
<path d="M18.2703 92.2705L108.82 92.2705V88.6105L18.2703 88.6105V92.2705Z" fill="#DBDBDB"/>
<path d="M18.2703 101.51L108.82 101.51V97.8498L18.2703 97.8498V101.51Z" fill="#DBDBDB"/>
<path d="M18.2703 110.76L108.82 110.76V107.1L18.2703 107.1V110.76Z" fill="#DBDBDB"/>
<path d="M18.2703 120.01L108.82 120.01V116.35L18.2703 116.35V120.01Z" fill="#DBDBDB"/>
<path d="M18.2703 129.26H108.82V125.6L18.2703 125.6V129.26Z" fill="#DBDBDB"/>
<path d="M125.64 66.2998V145.75H0.360352V66.2998C5.74035 69.3498 11.0304 72.5498 16.3504 75.6698C21.6604 78.8498 26.9604 82.0298 32.2304 85.2698C38.1004 88.8398 43.9704 92.4798 49.8204 96.1398C49.8804 96.0998 49.9504 96.0598 50.0104 96.0298C49.9504 96.0698 49.9204 96.1198 49.8604 96.1598C54.2404 98.8898 58.6304 101.64 63.0104 104.38C67.3704 101.63 71.7604 98.8698 76.1404 96.1598C76.0804 96.1198 76.0503 96.0698 75.9903 96.0298C76.0503 96.0698 76.1204 96.1098 76.1804 96.1198C82.0303 92.4698 87.8804 88.8398 93.7704 85.2498C99.0404 82.0298 104.32 78.8298 109.63 75.6698C114.97 72.5498 120.26 69.3498 125.64 66.2998Z" fill="#3A7BBF"/>
<g opacity="0.2">
<path d="M125.641 66.3C120.581 69.86 115.421 73.26 110.331 76.76C105.191 80.18 100.041 83.61 94.8606 86.99C89.4606 90.53 84.0406 94.03 78.6206 97.51C78.4506 97.62 78.3006 97.74 78.1306 97.85C73.3306 100.92 68.5206 103.98 63.7006 107.05L62.9906 107.48L62.2906 107.05C57.4706 103.98 52.6806 100.92 47.8806 97.83C47.7106 97.74 47.5406 97.62 47.3706 97.51C41.9306 94.03 36.5106 90.53 31.1106 86.97C25.9506 83.6 20.8006 80.18 15.6606 76.75C10.5606 73.25 5.41059 69.85 0.350586 66.29C5.73059 69.34 11.0206 72.54 16.3406 75.66C21.6506 78.84 26.9506 82.02 32.2206 85.26C38.0906 88.83 43.9606 92.47 49.8106 96.13C49.8106 96.13 49.8239 96.1367 49.8506 96.15C54.2306 98.88 58.6206 101.63 63.0006 104.37C67.3606 101.62 71.7506 98.86 76.1306 96.15C76.1306 96.15 76.1439 96.1367 76.1706 96.11C82.0206 92.46 87.8706 88.83 93.7606 85.24C99.0306 82.02 104.311 78.82 109.621 75.66C114.961 72.54 120.251 69.34 125.631 66.29L125.641 66.3Z" fill="black"/>
<path d="M50.0102 96.0303C49.9502 96.0703 49.9202 96.1203 49.8602 96.1603C49.2002 96.7203 48.5402 97.2903 47.8802 97.8303C44.7402 100.48 41.5202 103.02 38.2502 105.49C34.2602 108.54 30.1802 111.45 26.0802 114.35C21.9602 117.19 17.8202 120.01 13.5902 122.72C9.36016 125.43 5.09016 128.08 0.660156 130.51C4.46016 127.18 8.41016 124.08 12.4002 121.05C16.4102 118 20.4902 115.09 24.5702 112.19C28.7102 109.33 32.8502 106.51 37.0802 103.8C40.4502 101.64 43.8702 99.5103 47.3702 97.5203C48.1802 97.0503 48.9902 96.6003 49.8202 96.1503C49.8802 96.1103 49.9502 96.0703 50.0102 96.0403V96.0303Z" fill="black"/>
<path d="M125.34 130.52C120.92 128.09 116.63 125.44 112.41 122.73C108.18 120.02 104.04 117.2 99.9002 114.36C95.8002 111.46 91.7202 108.55 87.7302 105.5C84.4802 103.04 81.2602 100.51 78.1302 97.86C77.4502 97.3 76.7902 96.73 76.1402 96.17C76.0802 96.13 76.0502 96.08 75.9902 96.04C76.0502 96.08 76.1202 96.12 76.1802 96.13C77.0102 96.6 77.8202 97.05 78.6302 97.52C82.1302 99.51 85.5302 101.64 88.9202 103.8C93.1502 106.51 97.2902 109.33 101.41 112.19C105.51 115.09 109.59 118 113.58 121.05C117.59 124.08 121.54 127.18 125.34 130.51V130.52Z" fill="black"/>
</g>
<path d="M118.463 77.077C119.421 69.1152 113.743 61.8845 105.781 60.9266C97.8194 59.9688 90.5886 65.6466 89.6308 73.6084C88.673 81.5701 94.3508 88.8009 102.313 89.7587C110.274 90.7166 117.505 85.0388 118.463 77.077Z" fill="#455A64"/>
<path d="M106.03 67.3301V82.9401C106.03 83.7601 105.34 84.3901 104.55 84.3901C103.76 84.3901 103.1 83.7501 103.1 82.9401V69.9201L102.04 70.5301C101.8 70.6901 101.54 70.7401 101.3 70.7401C100.8 70.7401 100.32 70.4801 100.06 70.0001C99.6103 69.3401 99.8503 68.4101 100.54 68.0201L103.79 66.0901C103.79 66.0901 103.87 66.0601 103.9 66.0401C103.95 66.0401 103.98 65.9901 104.03 65.9601C104.08 65.9601 104.14 65.9301 104.19 65.9301C104.22 65.9001 104.27 65.9001 104.3 65.9001C104.35 65.8701 104.43 65.8701 104.48 65.8701H104.77C104.77 65.8701 104.85 65.9001 104.88 65.9001C104.96 65.9001 104.99 65.9301 105.04 65.9501C105.07 65.9501 105.12 65.9501 105.15 65.9801C105.23 66.0301 105.26 66.0601 105.31 66.0601C105.34 66.0901 105.36 66.1101 105.42 66.1401C105.45 66.1701 105.5 66.1901 105.53 66.2201C105.58 66.2501 105.61 66.3001 105.64 66.3301C105.67 66.3601 105.69 66.3801 105.72 66.4401C105.75 66.4701 105.8 66.5201 105.83 66.5501L105.86 66.6001C105.86 66.6001 105.89 66.6501 105.89 66.6801C105.92 66.7301 105.94 66.7601 105.94 66.8101C105.97 66.8601 105.97 66.9201 105.99 66.9401C105.99 66.9901 106.02 67.0501 106.02 67.0701C106.02 67.1501 106.02 67.2001 106.07 67.2601V67.3401L106.03 67.3301Z" fill="white"/>
</g>
<defs>
<clipPath id="clip0_1129_18098">
<rect width="125.28" height="145.76" fill="white" transform="translate(0.360352)"/>
</clipPath>
</defs>
</svg>
