<svg viewBox="0 0 16 16" fill="none" xmlns="http://www.w3.org/2000/svg">
<path d="M11.124 7.8038C11.5947 7.51173 11.9919 7.11164 12.284 6.63543C12.576 6.15922 12.7549 5.62007 12.8062 5.06095C12.8152 4.55536 12.7262 4.05294 12.5446 3.58238C12.3629 3.11182 12.0921 2.68234 11.7475 2.31847C11.403 1.9546 10.9914 1.66347 10.5364 1.46171C10.0814 1.25994 9.5919 1.1515 9.09577 1.14258H2.85718V14.8569H9.58601C10.0581 14.8517 10.5247 14.7519 10.9589 14.563C11.3932 14.3742 11.7867 14.1 12.1169 13.7562C12.4472 13.4123 12.7078 13.0055 12.8838 12.559C13.0598 12.1126 13.1478 11.6351 13.1427 11.154V11.0365C13.143 10.3577 12.9532 9.69296 12.5957 9.12033C12.2381 8.5477 11.7275 8.09096 11.124 7.8038ZM4.7797 3.10176H8.817C9.22667 3.08884 9.63041 3.20392 9.97405 3.43154C10.3177 3.65917 10.5848 3.98846 10.7395 4.37523C10.8961 4.89225 10.8455 5.4514 10.5987 5.93048C10.3519 6.40957 9.92909 6.76963 9.4226 6.93197C9.22591 6.99071 9.02197 7.0204 8.817 7.02013H4.7797V3.10176ZM9.20151 12.8977H4.7797V8.97931H9.20151C9.61117 8.96639 10.0149 9.08147 10.3586 9.30909C10.7022 9.53672 10.9693 9.86601 11.124 10.2528C11.2806 10.7698 11.23 11.3289 10.9832 11.808C10.7364 12.2871 10.3136 12.6472 9.8071 12.8095C9.61041 12.8683 9.40647 12.8979 9.20151 12.8977Z"/>
</svg>
