<svg fill="none" xmlns="http://www.w3.org/2000/svg">
<path d="M9.12403 6.8038C9.5947 6.51173 9.99189 6.11164 10.284 5.63543C10.576 5.15922 10.7549 4.62007 10.8062 4.06095C10.8152 3.55536 10.7262 3.05294 10.5446 2.58238C10.3629 2.11182 10.0921 1.68234 9.74752 1.31847C9.40296 0.954598 8.99142 0.663468 8.53643 0.461706C8.08144 0.259944 7.5919 0.151503 7.09577 0.142578H0.857178V13.8569H7.58601C8.05814 13.8517 8.52465 13.7519 8.95891 13.563C9.39317 13.3742 9.78667 13.1 10.1169 12.7562C10.4472 12.4123 10.7078 12.0055 10.8838 11.559C11.0598 11.1126 11.1478 10.6351 11.1427 10.154V10.0365C11.143 9.35771 10.9532 8.69296 10.5957 8.12033C10.2381 7.5477 9.72754 7.09096 9.12403 6.8038ZM2.7797 2.10176H6.817C7.22667 2.08884 7.63041 2.20392 7.97405 2.43154C8.3177 2.65917 8.5848 2.98846 8.73953 3.37523C8.89609 3.89225 8.84546 4.4514 8.59869 4.93048C8.35192 5.40957 7.92909 5.76963 7.4226 5.93197C7.22591 5.99071 7.02197 6.0204 6.817 6.02013H2.7797V2.10176ZM7.20151 11.8977H2.7797V7.97931H7.20151C7.61117 7.96639 8.01491 8.08147 8.35856 8.30909C8.7022 8.53672 8.96931 8.86601 9.12403 9.25278C9.2806 9.7698 9.22996 10.3289 8.9832 10.808C8.73643 11.2871 8.31359 11.6472 7.8071 11.8095C7.61041 11.8683 7.40647 11.8979 7.20151 11.8977Z"/>
</svg>
