<svg id="레이어_1" data-name="레이어 1" xmlns="http://www.w3.org/2000/svg" viewBox="0 0 300 300"><defs><style>.cls-1{fill:#0b0104;}</style></defs><path class="cls-1" d="M148.076,56.493c-45.9,1.083-83.108,39.338-82.949,85.276a84.754,84.754,0,0,0,39,71.175,8.826,8.826,0,0,1,4,7.477h.02a22.028,22.028,0,0,0,21.98,21.048h40a22.026,22.026,0,0,0,21.98-21.049h.02a9.142,9.142,0,0,1,4.254-7.643,85,85,0,0,0-48.3-156.284Zm2.05,111.976a5,5,0,1,1,5-5A5,5,0,0,1,150.126,168.469Zm37.536,30.892a25.093,25.093,0,0,0-11.517,20.108h-.019a6.006,6.006,0,0,1-6,6H158.057a8.047,8.047,0,0,0,.069-1V182.877a21,21,0,1,0-16,0v41.592a8.047,8.047,0,0,0,.069,1H130.127a6.006,6.006,0,0,1-6-6h-.018A24.738,24.738,0,0,0,112.8,199.5a68.811,68.811,0,0,1-31.672-57.782C81,104.422,111.2,73.368,148.453,72.489a69,69,0,0,1,39.209,126.872Z"/><path class="cls-1" d="M148.656,44.977a8,8,0,0,0,8-8V24.469a8,8,0,1,0-16,0V36.977A8,8,0,0,0,148.656,44.977Z"/><path class="cls-1" d="M40.91,136.723H28.4a8,8,0,1,0,0,16H40.91a8,8,0,0,0,0-16Z"/><path class="cls-1" d="M271.91,136.723H259.4a8,8,0,0,0,0,16H271.91a8,8,0,0,0,0-16Z"/><path class="cls-1" d="M74.928,77.55A8,8,0,0,0,75.8,66.27l-8.136-9.5A8,8,0,1,0,55.512,67.177l8.136,9.5a8,8,0,0,0,11.28.873Z"/><path class="cls-1" d="M241.927,55.9a8,8,0,0,0-11.28.874l-8.135,9.5a8,8,0,0,0,12.154,10.407l8.135-9.5A8,8,0,0,0,241.927,55.9Z"/><path class="cls-1" d="M174.626,246.469h-49a8,8,0,0,0,0,16h49a8,8,0,1,0,0-16Z"/><path class="cls-1" d="M164.626,268.469h-29a8,8,0,0,0,0,16h29a8,8,0,1,0,0-16Z"/></svg>