<svg viewBox="0 0 16 16" fill="none" xmlns="http://www.w3.org/2000/svg">
<path d="M14.6666 2.00033H12.6666V1.33366C12.6666 1.15685 12.5964 0.987278 12.4714 0.862254C12.3464 0.73723 12.1768 0.666992 12 0.666992C11.8232 0.666992 11.6536 0.73723 11.5286 0.862254C11.4035 0.987278 11.3333 1.15685 11.3333 1.33366V2.00033H8.66663V1.33366C8.66663 1.15685 8.5964 0.987278 8.47137 0.862254C8.34635 0.73723 8.17678 0.666992 7.99997 0.666992C7.82315 0.666992 7.65359 0.73723 7.52856 0.862254C7.40354 0.987278 7.3333 1.15685 7.3333 1.33366V2.00033H4.66663V1.33366C4.66663 1.15685 4.59639 0.987278 4.47137 0.862254C4.34634 0.73723 4.17677 0.666992 3.99996 0.666992C3.82315 0.666992 3.65358 0.73723 3.52856 0.862254C3.40353 0.987278 3.3333 1.15685 3.3333 1.33366V2.00033H1.33329C1.15648 2.00033 0.986913 2.07056 0.861888 2.19559C0.736864 2.32061 0.666626 2.49018 0.666626 2.66699V6.00032H15.3333V2.66699C15.3333 2.49018 15.2631 2.32061 15.138 2.19559C15.013 2.07056 14.8435 2.00033 14.6666 2.00033Z" />
<path d="M0.666626 14.6673C0.666626 14.8441 0.736864 15.0137 0.861888 15.1387C0.986913 15.2638 1.15648 15.334 1.33329 15.334H14.6666C14.8435 15.334 15.013 15.2638 15.138 15.1387C15.2631 15.0137 15.3333 14.8441 15.3333 14.6673V7.33398H0.666626V14.6673Z" />
</svg>
