<svg id="레이어_1" data-name="레이어 1" xmlns="http://www.w3.org/2000/svg" viewBox="0 0 300 300"><defs></defs><path class="cls-1" d="M110.5,81h140a8,8,0,0,0,0-16h-140a8,8,0,0,0,0,16Z"/><path class="cls-1" d="M80.2,53.7,58.9,77.007,48.011,63.831A6.5,6.5,0,0,0,37.989,72.11L52.905,90.167A7.5,7.5,0,0,0,58.5,92.886l.189,0a7.5,7.5,0,0,0,5.534-2.44L89.8,62.474A6.5,6.5,0,0,0,80.2,53.7Z"/><path class="cls-1" d="M250.5,137h-140a8,8,0,0,0,0,16h140a8,8,0,0,0,0-16Z"/><path class="cls-1" d="M80.2,125.7,58.9,149.007,48.011,135.831a6.5,6.5,0,0,0-10.022,8.279l14.916,18.057a7.5,7.5,0,0,0,5.593,2.719l.189,0a7.5,7.5,0,0,0,5.534-2.44L89.8,134.474A6.5,6.5,0,1,0,80.2,125.7Z"/><path class="cls-1" d="M250.5,209h-140a8,8,0,0,0,0,16h140a8,8,0,0,0,0-16Z"/><path class="cls-1" d="M80.2,197.7,58.9,221.007,48.011,207.831a6.5,6.5,0,0,0-10.022,8.279l14.916,18.057a7.5,7.5,0,0,0,5.593,2.719l.189,0a7.5,7.5,0,0,0,5.534-2.44L89.8,206.474A6.5,6.5,0,1,0,80.2,197.7Z"/></svg>
