<svg width="14" height="10" viewBox="0 0 14 10" fill="none" xmlns="http://www.w3.org/2000/svg">
<path d="M9.05078 0.0507812H4.12891C1.86744 0.0507812 0 1.91822 0 4.17969C0 6.2477 1.56543 7.96283 3.55734 8.2416C3.6826 8.30047 3.97737 8.28125 4.12891 8.28125V9.51172C4.12891 9.66312 4.21222 9.80211 4.34561 9.87342C4.47729 9.94408 4.63955 9.93765 4.76659 9.853L7.12417 8.28125H9.05078C11.3122 8.28125 13.1797 6.44115 13.1797 4.17969C13.1797 1.91822 11.3122 0.0507812 9.05078 0.0507812ZM4.12891 5C3.6767 5 3.30859 4.6319 3.30859 4.17969C3.30859 3.72748 3.6767 3.35938 4.12891 3.35938C4.58112 3.35938 4.94922 3.72748 4.94922 4.17969C4.94922 4.6319 4.58112 5 4.12891 5ZM6.58984 5C6.13763 5 5.76953 4.6319 5.76953 4.17969C5.76953 3.72748 6.13763 3.35938 6.58984 3.35938C7.04205 3.35938 7.41016 3.72748 7.41016 4.17969C7.41016 4.6319 7.04205 5 6.58984 5ZM9.05078 5C8.59857 5 8.23047 4.6319 8.23047 4.17969C8.23047 3.72748 8.59857 3.35938 9.05078 3.35938C9.50299 3.35938 9.87109 3.72748 9.87109 4.17969C9.87109 4.6319 9.50299 5 9.05078 5Z" fill="#9DA7B0"/>
</svg>
