<svg width="12" height="10" viewBox="0 0 12 10" fill="none" xmlns="http://www.w3.org/2000/svg">
<path d="M8.31682 0.333008C9.12768 0.333008 9.87349 0.6574 10.417 1.2464C10.9542 1.82851 11.25 2.62376 11.25 3.48569C11.25 4.37298 10.9192 5.18512 10.2087 6.0416C9.57312 6.80785 8.65969 7.58553 7.60208 8.48598L7.60193 8.48611L7.5929 8.4938C7.23374 8.79966 6.82735 9.14575 6.40575 9.51411C6.2936 9.61224 6.1494 9.66634 6 9.66634C5.85052 9.66634 5.7064 9.61224 5.59409 9.51395C5.16928 9.14286 4.76014 8.79446 4.39913 8.48705L4.39831 8.48635C3.34047 7.58569 2.42699 6.80788 1.79141 6.04168C1.08093 5.18512 0.75 4.37298 0.75 3.48577C0.75 2.62376 1.04584 1.82851 1.58289 1.2464C2.12643 0.6574 2.87232 0.333008 3.68318 0.333008C4.28928 0.333008 4.84435 0.524458 5.33294 0.901994C5.57959 1.09256 5.80309 1.32579 6 1.59784C6.19699 1.32571 6.42041 1.09256 6.66698 0.901994C7.15565 0.524458 7.71072 0.333008 8.31682 0.333008Z" fill="#9DA7B0"/>
</svg>
