<svg width="16" height="16" viewBox="0 0 16 16" fill="none" xmlns="http://www.w3.org/2000/svg">
<path d="M8.22852 4.57143H10.5142L7.99995 16H5.71423L8.22852 4.57143ZM10.1485 0C9.92248 0 9.70152 0.0670275 9.51358 0.192606C9.32564 0.318185 9.17916 0.496675 9.09266 0.705505C9.00616 0.914335 8.98352 1.14412 9.02762 1.36582C9.07172 1.58751 9.18056 1.79115 9.3404 1.95098C9.50023 2.11081 9.70387 2.21966 9.92556 2.26375C10.1473 2.30785 10.377 2.28522 10.5859 2.19872C10.7947 2.11222 10.9732 1.96574 11.0988 1.77779C11.2243 1.58985 11.2914 1.36889 11.2914 1.14286C11.2914 0.839753 11.171 0.549063 10.9566 0.334735C10.7423 0.120408 10.4516 0 10.1485 0Z" />
</svg>
