<svg viewBox="0 0 16 16" fill="none" xmlns="http://www.w3.org/2000/svg">
<g clip-path="url(#clip0_435_6643)">
<path d="M14.9017 1.09838C13.4372 -0.366121 11.0629 -0.366121 9.59836 1.09835L6.46418 4.23253C4.94934 5.74744 5.08959 8.16119 6.46418 9.53584C6.69437 9.76603 6.94905 9.95372 7.21799 10.1079L7.79002 9.53584C8.16521 9.16059 8.03315 8.72194 8.0264 8.40541C7.94405 8.34703 7.86396 8.28394 7.79002 8.21C7.08462 7.50466 7.0529 6.29547 7.79002 5.55835C7.89949 5.44888 10.8577 2.49066 10.9241 2.42422C11.6554 1.693 12.8446 1.693 13.5758 2.42422C14.307 3.15544 14.307 4.34466 13.5758 5.07588L11.5041 7.14753C11.564 7.479 11.9236 8.26419 11.7386 9.55944C11.7477 9.55056 11.7585 9.54484 11.7675 9.53588L14.9017 6.40169C16.3661 4.93719 16.3661 2.56288 14.9017 1.09838Z" />
<path d="M9.77868 6.22145C9.54853 5.99126 9.29381 5.80357 9.02493 5.64941L8.4529 6.22145C8.07765 6.59663 8.20971 7.03529 8.21646 7.35182C8.29887 7.4102 8.37896 7.47329 8.4529 7.54723C9.15831 8.25263 9.19003 9.46176 8.4529 10.1989C8.34318 10.3086 5.13993 13.5119 5.07583 13.5759C4.34461 14.3072 3.15539 14.3072 2.42417 13.5759C1.69296 12.8447 1.69296 11.6555 2.42417 10.9243L4.73877 8.6097C4.67886 8.27823 4.3193 7.49304 4.50427 6.19779C4.49524 6.20666 4.48436 6.21245 4.47536 6.22141L1.09833 9.59851C-0.36611 11.063 -0.36611 13.4373 1.09833 14.9018C2.56283 16.3663 4.93711 16.3663 6.40162 14.9018L9.77868 11.5248C11.2654 10.038 11.1842 7.62691 9.77868 6.22145Z" />
</g>
<defs>
<clipPath id="clip0_435_6643">
<rect width="16" height="16" fill="white"/>
</clipPath>
</defs>
</svg>
