<svg width="20" height="21" viewBox="0 0 20 21" fill="none" xmlns="http://www.w3.org/2000/svg">
<path d="M1.62162 2.49707C0.724307 2.49707 0 3.22138 0 4.11869C0 5.016 0.724307 5.74031 1.62162 5.74031C2.51893 5.74031 3.24324 5.016 3.24324 4.11869C3.24324 3.22138 2.51893 2.49707 1.62162 2.49707Z"/>
<path d="M1.62162 8.9834C0.724307 8.9834 0 9.70771 0 10.605C0 11.5023 0.724307 12.2266 1.62162 12.2266C2.51893 12.2266 3.24324 11.5023 3.24324 10.605C3.24324 9.70771 2.51893 8.9834 1.62162 8.9834Z" />
<path d="M1.62162 15.4702C0.718935 15.4702 0 16.2 0 17.0919C0 17.9837 0.729729 18.7135 1.62162 18.7135C2.51351 18.7135 3.24324 17.9837 3.24324 17.0919C3.24324 16.2 2.52431 15.4702 1.62162 15.4702Z" />
<path d="M20.0004 16.0107H4.86523V18.1729H20.0004V16.0107Z" />
<path d="M20.0004 3.0376H4.86523V5.19978H20.0004V3.0376Z" />
<path d="M20.0004 9.52393H4.86523V11.6861H20.0004V9.52393Z" />
</svg>
