<svg viewBox="0 0 20 20" fill="none" xmlns="http://www.w3.org/2000/svg">
<path fill-rule="evenodd" clip-rule="evenodd" d="M12.8305 1.0374C12.3955 0.624398 11.8183 0.394562 11.2185 0.395511L4.58794 0.395511C3.96636 0.39626 3.37045 0.643513 2.93093 1.08304C2.49141 1.52256 2.24416 2.11877 2.24341 2.74035V17.26C2.24416 17.8816 2.49141 18.4775 2.93093 18.917C3.37045 19.3565 3.96666 19.6038 4.58824 19.6045H14.7015C15.3231 19.6038 15.919 19.3565 16.3585 18.917C16.798 18.4775 17.0453 17.8813 17.046 17.2597L17.046 6.03461C17.0455 5.71596 16.9803 5.40074 16.8543 5.10807C16.7283 4.8154 16.5438 4.55111 16.3127 4.33176L12.8305 1.0374ZM4.20315 2.35526C4.30529 2.25313 4.4438 2.19575 4.58824 2.19575H10.695V4.90741C10.695 5.33772 10.8659 5.75041 11.1702 6.05468C11.4744 6.35895 11.8871 6.52989 12.3174 6.52989H15.2458V17.2597C15.2458 17.4041 15.1884 17.5427 15.0863 17.6448C14.9842 17.7469 14.8456 17.8043 14.7012 17.8043H4.58824C4.4438 17.8043 4.30529 17.7469 4.20315 17.6448C4.10102 17.5427 4.04365 17.4042 4.04365 17.2597V2.74035C4.04365 2.59591 4.10102 2.45739 4.20315 2.35526ZM12.4952 4.72965V3.19826L14.1137 4.72965H12.4952Z"/>
<path fill-rule="evenodd" clip-rule="evenodd" d="M9.64483 7.59961C10.1077 7.59961 10.483 7.9354 10.483 8.34961V14.3496C10.483 14.7638 10.1077 15.0996 9.64483 15.0996C9.18191 15.0996 8.80664 14.7638 8.80664 14.3496V8.34961C8.80664 7.9354 9.18191 7.59961 9.64483 7.59961Z"/>
<path fill-rule="evenodd" clip-rule="evenodd" d="M5.89478 11.3498C5.89478 10.8886 6.23056 10.5146 6.64478 10.5146H12.6448C13.059 10.5146 13.3948 10.8886 13.3948 11.3498C13.3948 11.8111 13.059 12.185 12.6448 12.185H6.64478C6.23056 12.185 5.89478 11.8111 5.89478 11.3498Z"/>
</svg>
