<svg width="20" height="20" viewBox="0 0 20 20" fill="none" xmlns="http://www.w3.org/2000/svg">
<path d="M9.44341 10.8455V16.289H4C4 14.8453 4.5735 13.4607 5.59434 12.4399C6.61518 11.419 7.99973 10.8455 9.44341 10.8455ZM13.526 15.9487L11.5262 17L11.9079 14.7736L10.2905 13.1964L12.5264 12.8712L13.526 10.8455L14.5262 12.8712L16.7614 13.1964L15.144 14.7736L15.5251 17L13.526 15.9487ZM9.44341 10.1651C7.1878 10.1651 5.36085 8.33817 5.36085 6.08256C5.36085 3.82694 7.1878 2 9.44341 2C11.699 2 13.526 3.82694 13.526 6.08256C13.526 8.33817 11.699 10.1651 9.44341 10.1651Z" />
</svg>
