<svg viewBox="0 0 16 16" fill="none" xmlns="http://www.w3.org/2000/svg">
<path d="M3.8965 5.8965C3.99026 5.80276 4.11742 5.75011 4.25 5.75011C4.38258 5.75011 4.50974 5.80276 4.6035 5.8965L8.95 10.243L11.0465 8.1465C11.142 8.05616 11.2685 8.00583 11.4 8.00583C11.5315 8.00583 11.658 8.05616 11.7535 8.1465L15 11.393V3.5885C14.9993 2.90219 14.7264 2.24418 14.2411 1.75889C13.7558 1.27359 13.0978 1.00066 12.4115 1H3.5885C2.90219 1.00066 2.24418 1.27359 1.75889 1.75889C1.27359 2.24418 1.00066 2.90219 1 3.5885V8.793L3.8965 5.8965ZM11.25 3C11.5961 3 11.9345 3.10264 12.2222 3.29493C12.51 3.48722 12.7343 3.76053 12.8668 4.0803C12.9992 4.40007 13.0339 4.75194 12.9664 5.09141C12.8989 5.43087 12.7322 5.74269 12.4874 5.98744C12.2427 6.23218 11.9309 6.39885 11.5914 6.46637C11.2519 6.5339 10.9001 6.49924 10.5803 6.36679C10.2605 6.23434 9.98722 6.01003 9.79493 5.72225C9.60264 5.43446 9.5 5.09612 9.5 4.75C9.5 4.28587 9.68437 3.84075 10.0126 3.51256C10.3408 3.18437 10.7859 3 11.25 3Z"/>
<path d="M11.4 9.20703L9.65698 10.95L13.4735 14.7665C13.8698 14.5863 14.2142 14.3089 14.4746 13.96C14.7351 13.6112 14.9033 13.2022 14.9635 12.771L11.4 9.20703Z"/>
<path d="M4.25 6.95703L1 10.207V12.4115C1.00066 13.0978 1.27359 13.7559 1.75889 14.2411C2.24418 14.7264 2.90219 14.9994 3.5885 15H12.293L4.25 6.95703Z"/>
</svg>
