<svg width="20" height="20" viewBox="0 0 20 20" fill="none" xmlns="http://www.w3.org/2000/svg">
<path d="M4.45226 5.545L2.1557 3.24918L3.19492 2.20996L17.7359 16.7517L16.6967 17.7901L14.2657 15.3592C12.974 16.1785 11.4754 16.6124 9.94579 16.6099C5.98575 16.6099 2.6911 13.7603 2 10C2.31583 8.28936 3.17628 6.72662 4.45299 5.545H4.45226ZM11.9706 13.0641L10.8954 11.9889C10.4842 12.1856 10.022 12.25 9.57265 12.1731C9.12329 12.0961 8.70886 11.8817 8.3865 11.5593C8.06413 11.237 7.8497 10.8225 7.77277 10.3732C7.69584 9.92383 7.76019 9.46168 7.95695 9.05043L6.88175 7.97523C6.41444 8.68137 6.20554 9.52732 6.29041 10.3698C6.37528 11.2123 6.74871 11.9996 7.34746 12.5984C7.94622 13.1971 8.73351 13.5706 9.57601 13.6554C10.4185 13.7403 11.2645 13.5314 11.9706 13.0641ZM6.98898 3.94835C7.90481 3.58848 8.9029 3.39019 9.94579 3.39019C13.9058 3.39019 17.2005 6.23977 17.8916 10C17.6665 11.2234 17.1607 12.3778 16.4139 13.3725L13.579 10.5377C13.6632 9.97039 13.6134 9.39129 13.4335 8.84674C13.2537 8.3022 12.9488 7.80735 12.5433 7.40184C12.1378 6.99632 11.6429 6.69142 11.0984 6.51157C10.5538 6.33171 9.97471 6.28188 9.40745 6.36609L6.98898 3.94909V3.94835Z"/>
</svg>
