<svg width="20" height="20" viewBox="0 0 20 20" fill="none" xmlns="http://www.w3.org/2000/svg">
<path fill-rule="evenodd" clip-rule="evenodd" d="M8.15213 1.77246C6.86124 2.0656 5.65704 2.65723 4.63613 3.49987C3.61521 4.34251 2.80601 5.4127 2.27344 6.62459H5.81719C6.24806 4.44715 7.08506 2.71127 8.15213 1.77246ZM14.1817 6.62459H17.7255C17.193 5.41283 16.384 4.34272 15.3633 3.50009C14.3426 2.65746 13.1386 2.06576 11.8479 1.77246C12.915 2.71127 13.752 4.44715 14.1817 6.62459ZM13.0297 6.625C12.4363 3.86875 11.1706 2.125 10.0001 2.125C8.82952 2.125 7.5639 3.86875 6.97046 6.625H13.0297ZM6.625 10C6.62486 10.7525 6.67504 11.5042 6.77519 12.25H13.2248C13.325 11.5042 13.3751 10.7525 13.375 10C13.3751 9.24749 13.325 8.49581 13.2248 7.75H6.77519C6.67504 8.49581 6.62486 9.24749 6.625 10ZM10.0001 17.875C8.82952 17.875 7.5639 16.1313 6.97046 13.375H13.0297C12.4363 16.1313 11.1706 17.875 10.0001 17.875ZM14.3612 7.75H18.1294C18.5396 9.22195 18.5396 10.778 18.1294 12.25H14.3606C14.4536 11.5036 14.5002 10.7522 14.5001 10C14.5004 9.24785 14.454 8.49641 14.3612 7.75ZM11.8479 18.2271C13.1388 17.934 14.343 17.3424 15.3639 16.4997C16.3848 15.6571 17.194 14.5869 17.7266 13.375H14.1828C13.752 15.5524 12.915 17.2883 11.8479 18.2271ZM2.27466 13.375H5.81841C6.24816 15.5524 7.08516 17.2883 8.15335 18.2271C6.86247 17.934 5.65826 17.3424 4.63735 16.4997C3.61643 15.6571 2.80723 14.5869 2.27466 13.375ZM5.6394 7.75C5.54641 8.49639 5.49982 9.24784 5.4999 10C5.49982 10.7522 5.54641 11.5036 5.6394 12.25H1.87065C1.46043 10.778 1.46043 9.22195 1.87065 7.75H5.6394Z"/>
</svg>
