<svg viewBox="0 0 20 20" fill="none" xmlns="http://www.w3.org/2000/svg">
<path d="M8.87548 16.75C13.2247 16.75 16.7505 13.2242 16.7505 8.87496C16.7505 4.5257 13.2247 1 8.87548 1C4.52622 1 1.00048 4.52574 1.00048 8.875C1.00048 13.2243 4.52626 16.75 8.87548 16.75ZM8.87548 3.25001C11.9821 3.25001 14.5005 5.76839 14.5005 8.875C14.5005 11.9816 11.9821 14.5 8.87548 14.5C5.76887 14.5 3.25049 11.9816 3.25049 8.875C3.25049 5.76839 5.76891 3.25001 8.87548 3.25001Z"/>
<path d="M17.8753 19C18.1744 19.0017 18.4618 18.8843 18.6741 18.6737C19.1152 18.2362 19.1181 17.5239 18.6806 17.0827C18.6784 17.0806 18.6762 17.0784 18.6741 17.0762L14.4441 12.8462C13.9874 12.4051 13.2596 12.4177 12.8184 12.8743C12.3773 13.331 12.3899 14.0588 12.8465 14.5L17.0766 18.6737C17.2889 18.8843 17.5763 19.0017 17.8753 19Z"/>
</svg>
