<svg viewBox="0 0 16 16" fill="none" xmlns="http://www.w3.org/2000/svg">
<path d="M16 0.695312H0V3.82575H16V0.695312Z"/>
<path d="M4.52175 4.86914H0V7.65173H4.52175V4.86914Z" />
<path d="M4.52175 12.5215H0V15.3041H4.52175V12.5215Z" />
<path d="M4.52175 8.69531H0V11.4779H4.52175V8.69531Z" />
<path d="M10.4347 4.86914H5.56519V7.65173H10.4347V4.86914Z" />
<path d="M10.4347 12.5215H5.56519V15.3041H10.4347V12.5215Z" />
<path d="M10.4347 8.69531H5.56519V11.4779H10.4347V8.69531Z" />
<path d="M16 4.86914H11.4783V7.65173H16V4.86914Z" />
<path d="M16 12.5215H11.4783V15.3041H16V12.5215Z" />
<path d="M16 8.69531H11.4783V11.4779H16V8.69531Z" />
</svg>
