<svg viewBox="0 0 16 16" fill="none" xmlns="http://www.w3.org/2000/svg">
<path d="M16 14.2602V16H0V14.2602H16ZM12.5714 6.69935C12.5338 7.45362 12.3099 8.18681 11.9197 8.83342C11.5295 9.48002 10.9852 10.0199 10.3355 10.4048C9.68568 10.7896 8.95068 11.0076 8.19613 11.039C7.44158 11.0705 6.69099 10.9145 6.01143 10.5851C5.22816 10.2462 4.56389 9.68121 4.10373 8.96247C3.64358 8.24373 3.40848 7.40397 3.42857 6.55078V0.00571442H1.14286V6.69935C1.18152 7.77524 1.47297 8.82692 1.99362 9.76924C2.51427 10.7116 3.24948 11.5181 4.13974 12.1234C5.03 12.7288 6.05029 13.1161 7.11803 13.2538C8.18577 13.3916 9.27094 13.2761 10.2857 12.9165C11.6356 12.4666 12.8067 11.5978 13.6288 10.4365C14.451 9.27525 14.8813 7.88199 14.8571 6.45935V0.00571442H12.5714V6.69935Z" />
</svg>
