<svg viewBox="0 0 16 16" fill="none" xmlns="http://www.w3.org/2000/svg">
<path d="M15.2235 2.5525C15.1404 2.51104 15.0475 2.49352 14.955 2.50191C14.8625 2.5103 14.7742 2.54426 14.7 2.6L11.5 5V3.771C11.4995 3.30146 11.3127 2.85131 10.9807 2.5193C10.6487 2.18729 10.1985 2.00053 9.729 2H2.271C1.80146 2.00053 1.35131 2.18729 1.0193 2.5193C0.687286 2.85131 0.500529 3.30146 0.5 3.771V12.229C0.500529 12.6985 0.687286 13.1487 1.0193 13.4807C1.35131 13.8127 1.80146 13.9995 2.271 14H9.729C10.1985 13.9995 10.6487 13.8127 10.9807 13.4807C11.3127 13.1487 11.4995 12.6985 11.5 12.229V11L14.7 13.4C14.7865 13.4649 14.8918 13.5 15 13.5C15.1326 13.5 15.2598 13.4473 15.3536 13.3536C15.4473 13.2598 15.5 13.1326 15.5 13V3C15.5 2.90708 15.4742 2.81599 15.4254 2.73695C15.3765 2.65791 15.3066 2.59403 15.2235 2.5525ZM8.5 8.5H6.5V10.5C6.5 10.6326 6.44732 10.7598 6.35355 10.8536C6.25979 10.9473 6.13261 11 6 11C5.86739 11 5.74021 10.9473 5.64645 10.8536C5.55268 10.7598 5.5 10.6326 5.5 10.5V8.5H3.5C3.36739 8.5 3.24021 8.44732 3.14645 8.35355C3.05268 8.25979 3 8.13261 3 8C3 7.86739 3.05268 7.74021 3.14645 7.64645C3.24021 7.55268 3.36739 7.5 3.5 7.5H5.5V5.5C5.5 5.36739 5.55268 5.24021 5.64645 5.14645C5.74021 5.05268 5.86739 5 6 5C6.13261 5 6.25979 5.05268 6.35355 5.14645C6.44732 5.24021 6.5 5.36739 6.5 5.5V7.5H8.5C8.63261 7.5 8.75979 7.55268 8.85355 7.64645C8.94732 7.74021 9 7.86739 9 8C9 8.13261 8.94732 8.25979 8.85355 8.35355C8.75979 8.44732 8.63261 8.5 8.5 8.5Z" />
</svg>
