<svg width="13" height="18" viewBox="0 0 13 18" fill="none" xmlns="http://www.w3.org/2000/svg">
<path d="M11.4804 7.52774H10.6905V5.12316C10.6964 4.5342 10.5855 3.94992 10.3642 3.40409C10.1429 2.85826 9.8156 2.36171 9.40121 1.94316C8.98683 1.5246 8.49358 1.19234 7.95 0.965581C7.40641 0.738824 6.82327 0.62207 6.23428 0.62207C5.6453 0.62207 5.06215 0.738824 4.51857 0.965581C3.97498 1.19234 3.48174 1.5246 3.06735 1.94316C2.65297 2.36171 2.32566 2.85826 2.10436 3.40409C1.88306 3.94992 1.77215 4.5342 1.77805 5.12316V7.52774H0.989042C0.770891 7.52774 0.561675 7.6144 0.40742 7.76866C0.253164 7.92291 0.166504 8.13213 0.166504 8.35028V16.5108C0.166504 16.729 0.253164 16.9382 0.40742 17.0925C0.561675 17.2467 0.770891 17.3334 0.989042 17.3334H11.4804C11.6985 17.3333 11.9077 17.2466 12.0619 17.0923C12.2161 16.9381 12.3028 16.729 12.303 16.5108V8.35028C12.3027 8.1322 12.216 7.92312 12.0618 7.76892C11.9076 7.61472 11.6985 7.52798 11.4804 7.52774ZM7.66501 12.4236C7.66501 12.803 7.51429 13.1669 7.24602 13.4351C6.97775 13.7034 6.6139 13.8541 6.23451 13.8541C5.85512 13.8541 5.49126 13.7034 5.22299 13.4351C4.95472 13.1669 4.80401 12.803 4.80401 12.4236C4.80401 12.0442 4.95472 11.6804 5.22299 11.4121C5.49126 11.1438 5.85512 10.9931 6.23451 10.9931V10.9931C6.6139 10.9931 6.97775 11.1438 7.24602 11.4121C7.51429 11.6804 7.66501 12.0442 7.66501 12.4236ZM9.04589 7.52774H3.42313V5.12316C3.42313 4.75396 3.49585 4.38838 3.63713 4.04729C3.77842 3.7062 3.9855 3.39627 4.24656 3.13521C4.50762 2.87415 4.81755 2.66707 5.15864 2.52578C5.49973 2.3845 5.86531 2.31178 6.23451 2.31178C6.6037 2.31178 6.96928 2.3845 7.31038 2.52578C7.65147 2.66707 7.96139 2.87415 8.22245 3.13521C8.48351 3.39627 8.6906 3.7062 8.83188 4.04729C8.97317 4.38838 9.04589 4.75396 9.04589 5.12316V7.52774Z" fill="#26282B"/>
</svg>
