<svg width="13" height="18" viewBox="0 0 13 18" fill="none" xmlns="http://www.w3.org/2000/svg">
<path d="M11.9804 7.52774H11.1905V5.12316C11.1964 4.5342 11.0855 3.94992 10.8642 3.40409C10.6429 2.85826 10.3156 2.36171 9.90121 1.94316C9.48683 1.5246 8.99358 1.19234 8.45 0.965581C7.90641 0.738824 7.32327 0.62207 6.73428 0.62207C6.1453 0.62207 5.56215 0.738824 5.01857 0.965581C4.47498 1.19234 3.98174 1.5246 3.56735 1.94316C3.15297 2.36171 2.82566 2.85826 2.60436 3.40409C2.38306 3.94992 2.27215 4.5342 2.27805 5.12316V7.52774H1.48904C1.27089 7.52774 1.06168 7.6144 0.90742 7.76866C0.753164 7.92291 0.666504 8.13213 0.666504 8.35028V16.5108C0.666504 16.729 0.753164 16.9382 0.90742 17.0925C1.06168 17.2467 1.27089 17.3334 1.48904 17.3334H11.9804C12.1985 17.3333 12.4077 17.2466 12.5619 17.0923C12.7161 16.9381 12.8028 16.729 12.803 16.5108V8.35028C12.8027 8.1322 12.716 7.92312 12.5618 7.76892C12.4076 7.61472 12.1985 7.52798 11.9804 7.52774ZM8.16501 12.4236C8.16501 12.803 8.01429 13.1669 7.74602 13.4351C7.47775 13.7034 7.1139 13.8541 6.73451 13.8541C6.35512 13.8541 5.99126 13.7034 5.72299 13.4351C5.45472 13.1669 5.30401 12.803 5.30401 12.4236C5.30401 12.0442 5.45472 11.6804 5.72299 11.4121C5.99126 11.1438 6.35512 10.9931 6.73451 10.9931C7.1139 10.9931 7.47775 11.1438 7.74602 11.4121C8.01429 11.6804 8.16501 12.0442 8.16501 12.4236ZM9.54589 7.52774H3.92313V5.12316C3.92313 4.75396 3.99585 4.38838 4.13713 4.04729C4.27842 3.7062 4.4855 3.39627 4.74656 3.13521C5.00762 2.87415 5.31755 2.66707 5.65864 2.52578C5.99973 2.3845 6.36531 2.31178 6.73451 2.31178C7.1037 2.31178 7.46928 2.3845 7.81038 2.52578C8.15147 2.66707 8.46139 2.87415 8.72245 3.13521C8.98351 3.39627 9.1906 3.7062 9.33188 4.04729C9.47317 4.38838 9.54589 4.75396 9.54589 5.12316V7.52774Z" fill="#26282B"/>
</svg>
