<svg width="13" height="16" viewBox="0 0 13 16" fill="none" xmlns="http://www.w3.org/2000/svg">
<path d="M5.44341 8.92269V14.3661H0C0 12.9224 0.573501 11.5379 1.59434 10.517C2.61518 9.49619 3.99973 8.92269 5.44341 8.92269ZM9.52597 14.0259L7.5262 15.0771L7.90792 12.8508L6.29054 11.2736L8.52642 10.9483L9.52597 8.92269L10.5262 10.9483L12.7614 11.2736L11.144 12.8508L11.5251 15.0771L9.52597 14.0259ZM5.44341 8.24227C3.1878 8.24227 1.36085 6.41532 1.36085 4.15971C1.36085 1.90409 3.1878 0.0771484 5.44341 0.0771484C7.69903 0.0771484 9.52597 1.90409 9.52597 4.15971C9.52597 6.41532 7.69903 8.24227 5.44341 8.24227Z" fill="black"/>
</svg>
