<svg width="16" height="16" viewBox="0 0 16 16" fill="none" xmlns="http://www.w3.org/2000/svg">
<path d="M2.45226 3.62215L0.155699 1.32633L1.19492 0.287109L15.7359 14.8288L14.6967 15.8673L12.2657 13.4363C10.974 14.2556 9.47541 14.6895 7.94579 14.6871C3.98575 14.6871 0.691098 11.8375 0 8.0772C0.315826 6.3665 1.17628 4.80377 2.45299 3.62215H2.45226ZM9.97061 11.1412L8.8954 10.066C8.48416 10.2628 8.022 10.3271 7.57265 10.2502C7.12329 10.1733 6.70886 9.95885 6.3865 9.63649C6.06413 9.31412 5.8497 8.89969 5.77277 8.45034C5.69584 8.00098 5.76019 7.53883 5.95695 7.12758L4.88175 6.05238C4.41444 6.75852 4.20554 7.60447 4.29041 8.44697C4.37528 9.28948 4.74871 10.0768 5.34746 10.6755C5.94622 11.2743 6.73351 11.6477 7.57601 11.7326C8.41851 11.8174 9.26446 11.6085 9.97061 11.1412ZM4.98898 2.0255C5.90481 1.66563 6.9029 1.46734 7.94579 1.46734C11.9058 1.46734 15.2005 4.31692 15.8916 8.0772C15.6665 9.30053 15.1607 10.455 14.4139 11.4497L11.579 8.6148C11.6632 8.04754 11.6134 7.46843 11.4335 6.92389C11.2537 6.37935 10.9488 5.88449 10.5433 5.47898C10.1378 5.07347 9.6429 4.76857 9.09836 4.58871C8.55381 4.40885 7.97471 4.35903 7.40745 4.44324L4.98898 2.02624V2.0255Z" fill="#131415"/>
</svg>
