<svg width="16" height="14" viewBox="0 0 16 14" fill="none" xmlns="http://www.w3.org/2000/svg">
<path d="M0 7.07732C0.695073 3.29139 4.01294 0.422363 8 0.422363C11.9871 0.422363 15.3042 3.29139 16 7.07732C15.3049 10.8633 11.9871 13.7323 8 13.7323C4.01294 13.7323 0.695813 10.8633 0 7.07732ZM8 10.7745C8.98056 10.7745 9.92095 10.385 10.6143 9.69164C11.3077 8.99828 11.6972 8.05788 11.6972 7.07732C11.6972 6.09676 11.3077 5.15637 10.6143 4.46301C9.92095 3.76965 8.98056 3.38012 8 3.38012C7.01944 3.38012 6.07904 3.76965 5.38569 4.46301C4.69233 5.15637 4.3028 6.09676 4.3028 7.07732C4.3028 8.05788 4.69233 8.99828 5.38569 9.69164C6.07904 10.385 7.01944 10.7745 8 10.7745ZM8 9.29564C7.41166 9.29564 6.84743 9.06193 6.43141 8.64591C6.0154 8.22989 5.78168 7.66566 5.78168 7.07732C5.78168 6.48899 6.0154 5.92475 6.43141 5.50873C6.84743 5.09272 7.41166 4.859 8 4.859C8.58834 4.859 9.15257 5.09272 9.56859 5.50873C9.9846 5.92475 10.2183 6.48899 10.2183 7.07732C10.2183 7.66566 9.9846 8.22989 9.56859 8.64591C9.15257 9.06193 8.58834 9.29564 8 9.29564Z" fill="black"/>
</svg>
