<svg width="20" height="20" viewBox="0 0 20 20" fill="none" xmlns="http://www.w3.org/2000/svg">
<path d="M15.4805 8.52774H14.6906V6.12316C14.6965 5.5342 14.5856 4.94992 14.3643 4.40409C14.143 3.85826 13.8157 3.36171 13.4013 2.94316C12.987 2.5246 12.4937 2.19234 11.9501 1.96558C11.4065 1.73882 10.8234 1.62207 10.2344 1.62207C9.64542 1.62207 9.06228 1.73882 8.51869 1.96558C7.9751 2.19234 7.48186 2.5246 7.06748 2.94316C6.65309 3.36171 6.32579 3.85826 6.10448 4.40409C5.88318 4.94992 5.77228 5.5342 5.77817 6.12316V8.52774H4.98916C4.77101 8.52774 4.5618 8.6144 4.40754 8.76866C4.25329 8.92291 4.16663 9.13213 4.16663 9.35028V17.5108C4.16663 17.729 4.25329 17.9382 4.40754 18.0925C4.5618 18.2467 4.77101 18.3334 4.98916 18.3334H15.4805C15.6987 18.3333 15.9078 18.2466 16.062 18.0923C16.2163 17.9381 16.303 17.729 16.3031 17.5108V9.35028C16.3028 9.1322 16.2161 8.92312 16.0619 8.76892C15.9077 8.61472 15.6986 8.52798 15.4805 8.52774ZM11.6651 13.4236C11.6651 13.803 11.5144 14.1669 11.2461 14.4351C10.9779 14.7034 10.614 14.8541 10.2346 14.8541C9.85524 14.8541 9.49138 14.7034 9.22311 14.4351C8.95484 14.1669 8.80413 13.803 8.80413 13.4236C8.80413 13.0442 8.95484 12.6804 9.22311 12.4121C9.49138 12.1438 9.85524 11.9931 10.2346 11.9931V11.9931C10.614 11.9931 10.9779 12.1438 11.2461 12.4121C11.5144 12.6804 11.6651 13.0442 11.6651 13.4236ZM13.046 8.52774H7.42325V6.12316C7.42325 5.75396 7.49597 5.38838 7.63725 5.04729C7.77854 4.7062 7.98562 4.39627 8.24668 4.13521C8.50774 3.87415 8.81767 3.66707 9.15876 3.52578C9.49985 3.3845 9.86543 3.31178 10.2346 3.31178C10.6038 3.31178 10.9694 3.3845 11.3105 3.52578C11.6516 3.66707 11.9615 3.87415 12.2226 4.13521C12.4836 4.39627 12.6907 4.7062 12.832 5.04729C12.9733 5.38838 13.046 5.75396 13.046 6.12316V8.52774Z"/>
</svg>
