<svg width="20" height="20" viewBox="0 0 20 20" fill="none" xmlns="http://www.w3.org/2000/svg">
<path fill-rule="evenodd" clip-rule="evenodd" d="M14.6905 8.52774H15.4804C15.6985 8.52798 15.9076 8.61472 16.0618 8.76892C16.216 8.92312 16.3027 9.1322 16.303 9.35028V17.5108C16.3028 17.729 16.2161 17.9381 16.0619 18.0923C15.9077 18.2466 15.6985 18.3333 15.4804 18.3334H4.98904C4.77089 18.3334 4.56168 18.2467 4.40742 18.0925C4.25316 17.9382 4.1665 17.729 4.1665 17.5108V9.35028C4.1665 9.13213 4.25316 8.92291 4.40742 8.76866C4.56168 8.6144 4.77089 8.52774 4.98904 8.52774H5.77805V6.12316C5.77215 5.5342 5.88306 4.94992 6.10436 4.40409C6.32566 3.85826 6.65297 3.36171 7.06735 2.94316C7.48174 2.5246 7.97498 2.19234 8.51857 1.96558C9.06215 1.73882 9.6453 1.62207 10.2343 1.62207C10.8233 1.62207 11.4064 1.73882 11.95 1.96558C12.4936 2.19234 12.9868 2.5246 13.4012 2.94316C13.8156 3.36171 14.1429 3.85826 14.3642 4.40409C14.5509 4.86455 14.659 5.35238 14.6847 5.84729H13.0323C13.0052 5.57272 12.9379 5.30312 12.8319 5.04729C12.6906 4.7062 12.4835 4.39627 12.2225 4.13521C11.9614 3.87415 11.6515 3.66707 11.3104 3.52578C10.9693 3.3845 10.6037 3.31178 10.2345 3.31178C9.86531 3.31178 9.49973 3.3845 9.15864 3.52578C8.81755 3.66707 8.50762 3.87415 8.24656 4.13521C7.9855 4.39627 7.77842 4.7062 7.63713 5.04729C7.49585 5.38838 7.42313 5.75396 7.42313 6.12316V8.52774H13.0459V8.5235H14.6905V8.52774ZM11.246 14.4351C11.5143 14.1669 11.665 13.803 11.665 13.4236C11.665 13.0442 11.5143 12.6804 11.246 12.4121C10.9778 12.1438 10.6139 11.9931 10.2345 11.9931C9.85512 11.9931 9.49126 12.1438 9.22299 12.4121C8.95472 12.6804 8.80401 13.0442 8.80401 13.4236C8.80401 13.803 8.95472 14.1669 9.22299 14.4351C9.49126 14.7034 9.85512 14.8541 10.2345 14.8541C10.6139 14.8541 10.9778 14.7034 11.246 14.4351Z"/>
</svg>
